HIERARCHY
ROOT Hips
{
	OFFSET 0.000000 0.000000 0.000000
	CHANNELS 6 Xposition Yposition Zposition Xrotation Yrotation Zrotation
	JOINT LeftUpLeg_virtual
	{
		OFFSET 0.000000 0.000000 0.000000
		CHANNELS 3 Xrotation Yrotation Zrotation
		JOINT LeftUpLeg
		{
			OFFSET 13.026900 -6.336304 -1.092800
			CHANNELS 3 Xrotation Yrotation Zrotation
			JOINT LeftLeg
			{
				OFFSET 0.524474 -46.096886 9.782700
				CHANNELS 3 Xrotation Yrotation Zrotation
				JOINT LeftFoot
				{
					OFFSET -0.524474 -53.427422 -12.948200
					CHANNELS 3 Xrotation Yrotation Zrotation
					JOINT LeftToeBase
					{
						OFFSET 0.192200 -14.009700 16.364100
						CHANNELS 3 Xrotation Yrotation Zrotation
						JOINT LeftToe_End
						{
							OFFSET -1.784700 -0.561700 9.474800
							CHANNELS 3 Xrotation Yrotation Zrotation
							End Site
							{
								OFFSET 0 0 0
							}
						}
					}
				}
			}
		}
	}
	JOINT RightUpLeg_virtual
	{
		OFFSET 0.000000 0.000000 0.000000
		CHANNELS 3 Xrotation Yrotation Zrotation
		JOINT RightUpLeg
		{
			OFFSET -12.883000 -6.336304 -1.092800
			CHANNELS 3 Xrotation Yrotation Zrotation
			JOINT RightLeg
			{
				OFFSET -0.524587 -46.096825 9.782800
				CHANNELS 3 Xrotation Yrotation Zrotation
				JOINT RightFoot
				{
					OFFSET 0.524587 -53.427383 -12.948300
					CHANNELS 3 Xrotation Yrotation Zrotation
					JOINT RightToeBase
					{
						OFFSET -0.192200 -14.009700 16.364100
						CHANNELS 3 Xrotation Yrotation Zrotation
						JOINT RightToe_End
						{
							OFFSET 1.784700 -0.561700 9.474800
							CHANNELS 3 Xrotation Yrotation Zrotation
							End Site
							{
								OFFSET 0 0 0
							}
						}
					}
				}
			}
		}
	}
	JOINT Spine_virtual
	{
		OFFSET 0.000000 0.000000 0.000000
		CHANNELS 3 Xrotation Yrotation Zrotation
		JOINT Spine
		{
			OFFSET 0.072000 7.257294 -0.789700
			CHANNELS 3 Xrotation Yrotation Zrotation
			JOINT Spine1
			{
				OFFSET 0.000000 12.508769 -0.658067
				CHANNELS 3 Xrotation Yrotation Zrotation
				JOINT Spine1_split
				{
					OFFSET 0.000000 12.508769 -0.658067
					CHANNELS 3 Xrotation Yrotation Zrotation
					JOINT Spine2
					{
						OFFSET 0.000000 12.508769 -0.658067
						CHANNELS 3 Xrotation Yrotation Zrotation
						JOINT Neck_virtual
						{
							OFFSET 0.000000 0.000000 0.000000
							CHANNELS 3 Xrotation Yrotation Zrotation
							JOINT Neck
							{
								OFFSET 0.000000 14.033295 7.520400
								CHANNELS 3 Xrotation Yrotation Zrotation
								JOINT Head
								{
									OFFSET 0.000000 8.198502 5.703100
									CHANNELS 3 Xrotation Yrotation Zrotation
									JOINT HeadTop_End
									{
										OFFSET 0.000000 17.760803 13.332701
										CHANNELS 3 Xrotation Yrotation Zrotation
										End Site
										{
											OFFSET 0 0 0
										}
									}
								}
							}
						}
						JOINT LeftShoulder_virtual
						{
							OFFSET 0.000000 0.000000 0.000000
							CHANNELS 3 Xrotation Yrotation Zrotation
							JOINT LeftShoulder
							{
								OFFSET 6.292450 5.785301 -0.669000
								CHANNELS 3 Xrotation Yrotation Zrotation
								JOINT LeftShoulder_split
								{
									OFFSET 6.292450 5.785301 -0.669000
									CHANNELS 3 Xrotation Yrotation Zrotation
									JOINT LeftArm
									{
										OFFSET 13.907140 -6.093903 1.965100
										CHANNELS 3 Xrotation Yrotation Zrotation
										JOINT LeftForeArm
										{
											OFFSET 34.140198 0.000000 0.000000
											CHANNELS 3 Xrotation Yrotation Zrotation
											JOINT LeftHand
											{
												OFFSET 40.960209 0.000000 0.000000
												CHANNELS 3 Xrotation Yrotation Zrotation
												End Site
												{
													OFFSET 0 0 0
												}
											}
										}
									}
								}
							}
						}
						JOINT RightShoulder_virtual
						{
							OFFSET 0.000000 0.000000 0.000000
							CHANNELS 3 Xrotation Yrotation Zrotation
							JOINT RightShoulder
							{
								OFFSET -6.292450 5.785301 -0.669000
								CHANNELS 3 Xrotation Yrotation Zrotation
								JOINT RightShoulder_split
								{
									OFFSET -6.292450 5.785301 -0.669000
									CHANNELS 3 Xrotation Yrotation Zrotation
									JOINT RightArm
									{
										OFFSET -13.907140 -6.093903 1.965100
										CHANNELS 3 Xrotation Yrotation Zrotation
										JOINT RightForeArm
										{
											OFFSET -34.140198 0.000000 0.000000
											CHANNELS 3 Xrotation Yrotation Zrotation
											JOINT RightHand
											{
												OFFSET -40.960209 0.000000 0.000000
												CHANNELS 3 Xrotation Yrotation Zrotation
												End Site
												{
													OFFSET 0 0 0
												}
											}
										}
									}
								}
							}
						}
					}
				}
			}
		}
	}
}
MOTION
Frames: 6
Frame Time: 0.03333333
-4.663944 105.461319 21.452133 0.000000 0.000000 0.000000 -3.940289 -12.693079 -1.211659 -30.587824 -1.424530 2.288208 43.562267 -2.419127 -2.698776 -9.110346 -6.101242 0.703936 -0.147951 0.120053 0.167707 0.000000 0.000000 0.000000 -3.940289 -12.693079 -1.211659 -22.247103 3.738504 1.430194 46.862679 11.284786 -6.831197 -21.139946 3.408337 -1.008595 -2.565215 1.811849 2.588680 0.000000 0.000000 0.000000 -3.940289 -12.693079 -1.211659 5.728860 1.074298 -0.564658 4.742728 -0.034711 0.014577 0.000000 0.000000 0.000000 0.000000 0.000000 0.000000 10.263423 25.788723 -3.323036 3.214662 7.303397 0.249758 4.005146 60.914243 -6.734859 0.000000 0.000000 0.000000 10.263423 25.788723 -3.323036 8.936044 -24.743231 -2.968072 0.000000 0.000000 0.000000 -31.923580 13.247187 -57.689437 -91.207156 12.809377 -86.343830 0.000000 0.000000 0.000000 10.263423 25.788723 -3.323036 10.515577 19.507444 -2.043900 0.000000 0.000000 0.000000 -4.524354 39.703388 48.810349 -102.228322 64.578824 87.596712 0.000000 0.000000 0.000000 
-6.433286 106.386406 21.503529 0.000000 0.000000 0.000000 -3.721307 -9.873407 -1.020643 -29.777139 -3.446019 1.927568 41.554427 -3.183954 -2.423048 -8.277010 -6.149865 -0.277217 -0.154854 0.123961 0.175528 0.000000 0.000000 0.000000 -3.721307 -9.873407 -1.020643 -21.495141 3.251150 0.073609 44.072827 9.600425 -3.671127 -19.142389 4.168587 -0.335264 -1.112977 1.816858 1.373156 0.000000 0.000000 0.000000 -3.721307 -9.873407 -1.020643 5.737513 1.121375 -0.622280 4.739112 -0.064816 0.012273 0.000000 0.000000 0.000000 0.000000 0.000000 0.000000 10.292017 26.036297 -3.377462 3.202044 7.206159 0.255005 3.577861 59.991642 -6.564246 0.000000 0.000000 0.000000 10.292017 26.036297 -3.377462 8.936042 -24.743282 -2.968061 0.000000 0.000000 0.000000 -31.852850 14.094141 -57.493623 -91.088660 12.819665 -86.878654 0.000000 0.000000 0.000000 10.292017 26.036297 -3.377462 10.514878 19.496056 -2.041466 0.000000 0.000000 0.000000 -4.648015 40.347795 49.038958 -102.338172 64.567383 87.720618 0.000000 0.000000 0.000000 
-8.225321 107.219254 21.346233 0.000000 0.000000 0.000000 -3.526609 -6.866178 -0.694963 -29.173886 -5.291167 1.469534 39.419501 -4.719842 -2.210540 -7.174922 -5.711703 -1.061504 -0.160124 0.128064 0.181633 0.000000 0.000000 0.000000 -3.526609 -6.866178 -0.694963 -20.390411 1.619902 -0.415961 42.451815 8.392199 -2.544808 -18.644695 4.349831 -1.090209 1.806949 2.203488 2.067292 0.000000 0.000000 0.000000 -3.526609 -6.866178 -0.694963 5.731480 1.167215 -0.772920 4.738549 -0.077031 0.013274 0.000000 0.000000 0.000000 0.000000 0.000000 0.000000 10.277609 25.957787 -3.363606 3.181539 7.089883 0.250238 3.168551 58.869148 -6.463690 0.000000 0.000000 0.000000 10.277609 25.957787 -3.363606 8.936023 -24.743211 -2.968078 0.000000 0.000000 0.000000 -31.626474 14.382066 -57.607858 -91.448713 12.659194 -87.264915 0.000000 0.000000 0.000000 10.277609 25.957787 -3.363606 10.515028 19.480686 -2.038390 0.000000 0.000000 0.000000 -4.644164 40.827442 49.316537 -102.775694 64.519859 87.913783 0.000000 0.000000 0.000000 
-9.791874 107.812477 20.900356 0.000000 0.000000 0.000000 -3.350583 -3.419929 -0.419110 -29.115283 -6.672145 1.952388 38.224659 -1.212753 -2.077691 -6.137444 -7.001255 -3.500480 -0.037954 0.169697 0.296774 0.000000 0.000000 0.000000 -3.350583 -3.419929 -0.419110 -19.560202 -0.171770 -0.794240 41.318656 6.704388 -1.788649 -18.422559 4.480687 -1.819807 1.930177 2.205447 2.208771 0.000000 0.000000 0.000000 -3.350583 -3.419929 -0.419110 5.696762 1.200872 -0.835903 4.741278 -0.063565 0.011808 0.000000 0.000000 0.000000 0.000000 0.000000 0.000000 10.218570 25.720433 -3.366812 3.145543 6.961893 0.230086 2.520928 56.815921 -6.334004 0.000000 0.000000 0.000000 10.218570 25.720433 -3.366812 8.936013 -24.743306 -2.968072 0.000000 0.000000 0.000000 -30.898307 14.479571 -58.234999 -92.469239 12.257732 -87.943767 0.000000 0.000000 0.000000 10.218570 25.720433 -3.366812 10.515774 19.488637 -2.040138 0.000000 0.000000 0.000000 -4.203960 41.444727 49.690296 -104.168725 64.358059 88.692520 0.000000 0.000000 0.000000 
-10.784417 108.047401 20.079159 0.000000 0.000000 0.000000 -3.209045 0.178454 -0.269231 -29.164218 -5.970387 4.016240 39.192537 3.869953 -1.810869 -6.186230 -8.054396 -6.967292 0.450999 1.390175 2.347837 0.000000 0.000000 0.000000 -3.209045 0.178454 -0.269231 -19.375302 -1.993300 -1.204355 40.806323 5.009081 -1.382760 -18.237508 4.451120 -1.930084 1.946652 2.205759 2.227792 0.000000 0.000000 0.000000 -3.209045 0.178454 -0.269231 5.645498 1.176557 -0.741233 4.742839 -0.031177 0.012462 0.000000 0.000000 0.000000 0.000000 0.000000 0.000000 10.132339 25.296027 -3.314820 3.099180 6.825537 0.198601 2.119830 54.992742 -6.372117 0.000000 0.000000 0.000000 10.132339 25.296027 -3.314820 8.936060 -24.743255 -2.968061 0.000000 0.000000 0.000000 -30.121691 13.909089 -59.238121 -94.009378 11.728292 -88.383488 0.000000 0.000000 0.000000 10.132339 25.296027 -3.314820 10.517511 19.488553 -2.040447 0.000000 0.000000 0.000000 -3.551511 41.866437 49.854811 -105.744579 64.148618 89.393366 0.000000 0.000000 0.000000 
-11.004665 108.003990 19.014896 0.000000 0.000000 0.000000 -3.135882 3.470392 -0.159384 -29.782688 -0.348676 7.819174 40.940379 4.364131 -1.626624 -5.813377 -9.366505 -7.835730 0.311794 2.766422 4.350343 0.000000 0.000000 0.000000 -3.135882 3.470392 -0.159384 -19.691768 -3.712041 -1.919642 40.848674 3.701188 -1.285794 -18.114741 4.292729 -1.537694 1.938942 2.205639 2.218818 0.000000 0.000000 0.000000 -3.135882 3.470392 -0.159384 5.585481 1.143513 -0.589436 4.746373 0.062271 0.008096 0.000000 0.000000 0.000000 0.000000 0.000000 0.000000 9.966267 24.638461 -3.270647 3.044397 6.684011 0.159790 1.595146 52.253806 -6.318780 0.000000 0.000000 0.000000 9.966267 24.638461 -3.270647 8.936014 -24.743255 -2.968079 0.000000 0.000000 0.000000 -28.827534 13.312426 -60.681518 -95.667673 11.234429 -89.297825 0.000000 0.000000 0.000000 9.966267 24.638461 -3.270647 10.521509 19.523438 -2.048233 0.000000 0.000000 0.000000 -2.057263 42.071640 49.733903 -108.551753 63.714750 91.350536 0.000000 0.000000 0.000000 
